<?xml version="1.0" standalone="no"?><!DOCTYPE svg PUBLIC "-//W3C//DTD SVG 1.1//EN" "http://www.w3.org/Graphics/SVG/1.1/DTD/svg11.dtd"><svg t="1644299438014" class="icon" viewBox="0 0 1024 1024" version="1.1" xmlns="http://www.w3.org/2000/svg" p-id="6233" xmlns:xlink="http://www.w3.org/1999/xlink" width="200" height="200"><defs><style type="text/css"></style></defs><path d="M950.857143 768v73.142857c0 20.004571-16.566857 36.571429-36.571429 36.571429H109.714286c-20.004571 0-36.571429-16.566857-36.571429-36.571429v-73.142857c0-20.004571 16.566857-36.571429 36.571429-36.571429h804.571428c20.004571 0 36.571429 16.566857 36.571429 36.571429z m0-292.571429v73.142858c0 20.004571-16.566857 36.571429-36.571429 36.571428H109.714286c-20.004571 0-36.571429-16.566857-36.571429-36.571428v-73.142858c0-20.004571 16.566857-36.571429 36.571429-36.571428h804.571428c20.004571 0 36.571429 16.566857 36.571429 36.571428z m0-292.571428v73.142857c0 20.004571-16.566857 36.571429-36.571429 36.571429H109.714286c-20.004571 0-36.571429-16.566857-36.571429-36.571429V182.857143c0-20.004571 16.566857-36.571429 36.571429-36.571429h804.571428c20.004571 0 36.571429 16.566857 36.571429 36.571429z" fill="" p-id="6234"></path></svg>