<?xml version="1.0" standalone="no"?><!DOCTYPE svg PUBLIC "-//W3C//DTD SVG 1.1//EN" "http://www.w3.org/Graphics/SVG/1.1/DTD/svg11.dtd"><svg t="1644300841163" class="icon" viewBox="0 0 1024 1024" version="1.1" xmlns="http://www.w3.org/2000/svg" p-id="2160" xmlns:xlink="http://www.w3.org/1999/xlink" width="200" height="200"><defs><style type="text/css"></style></defs><path d="M366.1 200.7h291.7c16.6 0 30-13.4 30-30s-13.4-30-30-30H366.1c-16.6 0-30 13.4-30 30s13.5 30 30 30zM366.1 755.3c16.6 0 30-13.4 30-30V366.7c0-16.6-13.4-30-30-30s-30 13.4-30 30v358.6c0 16.6 13.5 30 30 30zM512 754.7c16.6 0 30-13.4 30-30V366.1c0-16.6-13.4-30-30-30s-30 13.4-30 30v358.6c0 16.6 13.4 30 30 30zM657.8 755.3c16.6 0 30-13.4 30-30V366.7c0-16.6-13.4-30-30-30s-30 13.4-30 30v358.6c0 16.6 13.5 30 30 30z" p-id="2161"></path><path d="M832.1 227.5H192c-16.6 0-30 13.4-30 30s13.4 30 30 30h55.3v505.8c0 49.6 40.4 90 90 90h349.5c49.6 0 90-40.4 90-90V287.5h55.3c16.6 0 30-13.4 30-30s-13.5-30-30-30zM716.7 793.3c0 16.5-13.5 30-30 30H337.3c-16.5 0-30-13.5-30-30V287.5h409.5v505.8z" p-id="2162"></path></svg>