<?xml version="1.0" standalone="no"?><!DOCTYPE svg PUBLIC "-//W3C//DTD SVG 1.1//EN" "http://www.w3.org/Graphics/SVG/1.1/DTD/svg11.dtd"><svg class="icon" width="200px" height="200.00px" viewBox="0 0 1024 1024" version="1.1" xmlns="http://www.w3.org/2000/svg"><path d="M1001.921245 971.349391a28.881582 28.881582 0 0 1-30.571852 30.571853h-182.549232V22.078683h182.549232a28.881582 28.881582 0 0 1 30.571852 30.645342v918.625366" fill="#FFFFFF" /><path d="M971.349393 1023.968252h-182.549232a22.047009 22.047009 0 0 1-22.047009-22.047008V22.078683a22.047009 22.047009 0 0 1 22.047009-22.047009h182.549232a50.92859 50.92859 0 0 1 52.618861 52.692351v918.625366a50.8551 50.8551 0 0 1-52.618861 52.618861z m-160.502224-44.094017h160.502224c6.173162 0 8.524843-2.351681 8.524844-8.524844v-918.625366c0-6.173162-2.351681-8.598333-8.524844-8.598333h-160.502224z" fill="#888888" /><path d="M618.597253 1001.921244h-213.121085V22.078683h213.121085v979.842561" fill="#FFFFFF" /><path d="M618.597253 1023.968252h-213.121085a22.047009 22.047009 0 0 1-22.047009-22.047008V22.078683a22.047009 22.047009 0 0 1 22.047009-22.047009h213.121085a22.047009 22.047009 0 0 1 22.047008 22.047009v979.842561a22.047009 22.047009 0 0 1-22.047008 22.047008z m-191.074076-44.094017h169.027067V44.125692h-169.027067z" fill="#888888" /><path d="M235.19977 1001.921244H52.724027A28.881582 28.881582 0 0 1 22.078685 971.349391v-918.625366A28.955072 28.955072 0 0 1 52.724027 22.078683H235.19977v979.842561" fill="#FFFFFF" /><path d="M235.19977 1023.968252H52.724027A50.92859 50.92859 0 0 1 0.031676 971.349391v-918.625366A50.92859 50.92859 0 0 1 52.724027 0.031674H235.19977a22.047009 22.047009 0 0 1 22.047009 22.047009v979.842561a22.047009 22.047009 0 0 1-22.047009 22.047008zM52.724027 44.125692C46.550865 44.125692 44.125694 46.550863 44.125694 52.724025v918.625366c0 6.173162 2.425171 8.524843 8.598333 8.524844H213.152761V44.125692z" fill="#888888" /></svg>