<?xml version="1.0" standalone="no"?><!DOCTYPE svg PUBLIC "-//W3C//DTD SVG 1.1//EN" "http://www.w3.org/Graphics/SVG/1.1/DTD/svg11.dtd"><svg t="1644300982732" class="icon" viewBox="0 0 1024 1024" version="1.1" xmlns="http://www.w3.org/2000/svg" p-id="2303" xmlns:xlink="http://www.w3.org/1999/xlink" width="200" height="200"><defs><style type="text/css"></style></defs><path d="M739.6 305.4h-7.4c-26.2-100.1-116.6-170-220.1-170s-194 69.9-220.1 170h-7.4c-110 0-199.1 89.1-199.1 199.1s89.1 199.1 199.1 199.1H313c15.7 0 28.4-12.7 28.4-28.4s-12.7-28.4-28.4-28.4h-28.4c-78.5 0-142.2-63.7-142.2-142.2 0-78.5 63.7-142.2 142.2-142.2 8.3 0 16.6 0.7 24.7 2.3 7.8 1.6 15.8-0.2 22.3-4.8 6.4-4.6 10.6-11.8 11.6-19.6 12-84.1 84-146.6 168.9-146.6S669 256 681 340.1c1 7.9 5.2 15 11.6 19.6 6.4 4.6 14.5 6.4 22.3 4.8 8.2-1.5 16.4-2.3 24.7-2.3 78.5 0 142.2 63.7 142.2 142.2 0 78.5-63.7 142.2-142.2 142.2h-28.4c-15.7 0-28.4 12.7-28.4 28.4s12.7 28.4 28.4 28.4h28.4c110 0 199.1-89.1 199.1-199.1 0-109.8-89.2-198.9-199.1-198.9z" p-id="2304"></path><path d="M537.1 514.7l-0.2-0.2c-2.3-2.3-4.8-4.3-7.6-5.8-7.8-4.4-17-5.3-25.5-2.9-5.1 1.5-10 4.2-14 8.2l-0.3 0.3-85.6 83.4c-13.2 12.9-13.4 34-0.6 47.1 12.9 13.2 34 13.4 47.1 0.6l33.1-32.2v200.4c0 15.7 12.7 28.4 28.4 28.4s28.4-12.7 28.4-28.4v-200l32.5 33.4c12.9 13.2 34 13.4 47.1 0.6 13.2-12.9 13.4-34 0.6-47.1l-83.4-85.8z" p-id="2305"></path></svg>